# xmcd CD database file
#
# Track frame offsets:
#	150
#	21111
#	36986
#	54071
#	78584
#
# Disc length: 1385 seconds
#
# Revision: 0
# Processed by: cddbd v1.5.1PL0 Copyright (c) Steve Scherf et al.
# Submitted via: CDex 1.50
#
DISCID=32056705
DTITLE=OKAHUMKEE - OKAHUMKEE
DYEAR=1998
DGENRE=Blues
TTITLE0=Didy
TTITLE1=New Sensation
TTITLE2=Surprise Blues
TTITLE3=Power Flowing
TTITLE4=Didjeridoo
EXTD=YEAR: 1998
EXTT0=
EXTT1=
EXTT2=
EXTT3=
EXTT4=
PLAYORDER=
